<?xml version="1.0" encoding="utf-8" ?><svg xmlns="http://www.w3.org/2000/svg" xmlns:xlink="http://www.w3.org/1999/xlink" viewBox="157 194 287 130"><path fill="#F9B50C" d="M304.689 204.635C305.148 204.602 305.607 204.575 306.066 204.554C330.05 203.471 352.82 220.263 358.963 243.102C360.455 248.648 360.659 252.661 360.861 258.31C349.166 258.322 337.552 259.273 326.025 261.178C321.39 261.943 316.833 262.473 312.297 263.832C311.693 263.935 310.084 264.226 309.584 264.101C304.78 262.896 299.743 260.182 295.009 258.808C281.859 254.99 269.818 252.21 256.146 251.361C258.366 225.431 279.339 206.992 304.689 204.635Z"/><path fill="#19293A" d="M229.936 263.458C235.79 263.11 242.167 263.526 247.957 263.869C274.704 265.453 299.988 273.363 323.5 286.078C333.937 291.723 344.291 298.218 354.869 303.744C359.872 306.358 365.283 308.504 370.493 310.675C372.74 311.612 376.313 312.328 378.186 313.729L377.864 313.933C372.882 313.541 368.033 313.411 363.075 312.686C349.126 310.644 335.927 307.377 322.457 303.272C307.935 298.876 293.197 293.494 279.065 289.082C245.247 278.525 210.861 273.836 175.592 277.945C173.447 278.195 169.301 278.903 167.266 278.733L167.054 278.355C168.432 276.855 172.868 275.291 174.932 274.467C192.682 267.381 210.943 264.332 229.936 263.458Z"/><path fill="#619942" d="M356.045 266.788C360.809 266.418 368.778 266.853 373.465 267.098C390.811 268.004 408.56 270.538 425.18 275.686C427.351 276.359 431.876 277.067 433.545 278.323L433.531 279.068L432.946 279.335C424.057 277.403 408.466 277.221 399.101 276.815C377.607 276.518 362.648 278.668 341.545 281.676C334.918 277.707 328.951 274.26 322.111 270.675C334.334 268.484 343.547 267.571 356.045 266.788Z"/><path fill="#19293A" d="M290.359 346.283C298.108 346.152 314.682 344.029 318.701 352.613C322.319 360.341 318.754 366.605 311.485 370.267C314.954 375.256 318.604 381.206 321.929 386.36C319.785 386.416 316.371 386.526 314.324 386.268C311.285 381.082 307.495 376.184 304.569 370.753L296.575 370.755C296.544 375.97 296.659 381.175 296.297 386.374L290.527 386.372C290.096 382.186 290.274 376.001 290.28 371.649L290.359 346.283ZM296.592 365.114C301.184 365.27 308.502 365.997 311.974 362.87C313.373 360.845 313.854 359.172 313.388 356.732C312.026 349.591 300.936 352.884 296.644 351.818C296.558 356.249 296.541 360.682 296.592 365.114Z"/><path fill="#19293A" d="M477.539 346.143L482.386 346.212C485.384 354.639 488.612 366.173 491.416 374.941C493.143 368.236 495.391 361.532 497.229 354.844C497.995 352.06 498.939 348.984 499.973 346.303L506.047 346.318C504.984 348.91 503.867 353.189 503.075 355.975C500.339 365.074 497.172 377.811 493.864 386.364L488.905 386.367C487.119 380.934 482.134 364.219 479.837 359.907C477.956 363.178 472.273 381.775 470.767 386.51L465.658 386.42C463.561 377.687 460.092 367.983 457.752 359.202C456.585 354.823 454.828 350.672 454.129 346.11C455.768 346.312 459.097 346.269 460.876 346.292C461.398 349.584 463.087 355.395 464.05 358.812C465.349 363.424 466.879 369.449 468.535 373.84C471.809 366.865 475.235 353.943 477.539 346.143Z"/><path fill="#19293A" d="M252.172 346.21C254.222 346.147 255.893 346.209 257.943 346.303C258.75 349.321 261.298 354.723 262.526 357.817C266.322 367.384 270.866 376.658 274.259 386.391C272.223 386.469 269.91 386.425 267.85 386.43C266.498 383.19 265.038 379.902 264.038 376.546L256.785 376.619C253.105 376.67 249.425 376.661 245.745 376.59C244.832 379.293 242.816 383.672 241.637 386.377L235.151 386.459C239.039 376.388 243.65 366.373 247.687 356.346C248.954 353.198 250.611 349.177 252.172 346.21ZM255.402 370.912C256.474 370.882 260.686 371.012 261.122 370.647C259.87 366.7 256.472 358.631 254.808 354.722C252.447 360.244 250.288 365.375 248.177 371.014C250.522 370.684 253.021 370.909 255.402 370.912Z"/><path fill="#19293A" d="M419.625 346.087C426.158 345.722 432.563 346.391 438.877 346.102C438.807 347.997 438.827 350.036 438.814 351.943C432.279 351.993 425 351.895 418.528 352.261C418.507 355.75 418.512 359.24 418.541 362.729C424.692 362.724 430.608 362.904 436.783 362.744C436.796 364.801 436.695 366.622 436.575 368.676C430.557 368.702 424.539 368.695 418.522 368.656L418.505 375.725L418.515 380.561C424.952 380.661 432.996 380.823 439.369 380.507C439.409 382.471 439.295 384.46 439.216 386.425C430.268 386.319 421.32 386.319 412.372 386.424C411.877 373.955 412.279 358.945 412.326 346.299C414.76 346.254 417.193 346.183 419.625 346.087Z"/><path fill="#19293A" d="M194.017 346.289C202.395 346.22 212.582 346.444 220.739 346.134L220.469 351.977C214.421 352.082 206.239 352.162 200.25 352.019C200.237 355.557 200.26 359.074 200.067 362.607C205.693 362.924 212.755 362.729 218.51 362.777C218.508 364.637 218.347 366.729 218.24 368.605C212.274 368.697 206.307 368.732 200.34 368.712C200.095 369.771 200.213 378.757 200.222 380.54C207.197 380.636 214.172 380.641 221.148 380.553C221.086 382.49 221.007 384.426 220.912 386.362C212.036 386.229 202.945 386.426 194.015 386.361L194.017 346.289Z"/><path fill="#19293A" d="M114.145 345.727C122.411 345.231 128.577 346.728 134.069 353.208C132.374 354.923 131.163 355.862 129.239 357.281C127.777 355.419 125.934 353.89 123.833 352.798C120.204 350.955 116.341 351.022 112.572 352.365C108.951 353.626 106.025 356.346 104.502 359.864C98.9266 372.577 110.466 385.454 124.381 379.567C126.212 378.496 127.962 376.743 129.83 375.411C131.58 376.801 132.648 377.613 134.167 379.255C126.951 387.468 114.913 389.812 105.707 383.607C101.216 380.619 98.1178 375.949 97.1108 370.65C94.7873 358.514 102.053 348.028 114.145 345.727Z"/><path fill="#19293A" d="M367.458 346.105L369.974 346.03C365.961 354.842 362.62 364.979 358.912 373.997C357.227 378.097 355.789 382.459 353.782 386.426L348.879 386.468C344.709 376.865 340.728 365.667 336.878 355.833C335.534 352.525 334.379 349.607 333.219 346.223L340.152 346.276L347.112 364.913C348.14 367.613 350.311 373.54 351.776 375.813C352.636 373.095 354.381 369.347 355.452 366.557L363.14 346.273C364.58 346.228 366.019 346.172 367.458 346.105Z"/><path fill="#19293A" d="M152.376 346.285C154.527 346.295 156.632 346.204 158.779 346.122C158.694 357.62 158.668 369.119 158.701 380.618C165.063 380.479 171.43 380.855 177.779 380.646L177.636 385.523L177.465 386.054C176.092 386.671 155.805 386.358 152.472 386.419C152.14 381.378 152.256 373.926 152.285 368.816L152.376 346.285Z"/><path fill="#19293A" d="M386.051 346.286L392.235 346.262C392.533 350.584 392.393 356.922 392.402 361.349C392.472 369.65 392.389 377.952 392.152 386.25C390.32 386.513 387.908 386.388 386.008 386.352L386.051 346.286Z"/><path fill="#619942" d="M320.751 414.849C325.585 415.842 330.061 426.148 333.733 429.37L334.021 429.072C333.866 426.781 333.601 417.109 335.075 415.133C335.341 414.776 335.539 414.918 336.073 414.941C336.845 415.66 337.163 415.778 337.077 417.531C336.79 423.411 337.172 429.642 336.644 435.462C336.412 435.703 336.18 435.945 335.948 436.187C332.135 434.772 325.815 424.059 322.439 420.433C323.771 423.775 324.23 425.993 323.621 429.647C323.355 431.245 323.638 433.904 322.908 435.225C322.023 435.831 321.432 436.128 320.603 435.367C320.169 433.152 319.839 416.398 320.751 414.849Z"/><path fill="#619942" d="M231.109 415.027C231.414 415.041 232.439 415.077 232.592 415.229C235.256 417.858 240.8 432.235 241.643 435.32C240.887 436.241 240.612 436.281 239.548 436.175C237.957 435.011 237.522 432.88 236.88 430.974C236.028 430.583 234.905 430.754 233.885 430.785C231.656 430.817 229.427 430.785 227.2 430.691C226.639 432.606 226.388 434.459 224.842 435.619C223.821 435.915 223.896 435.901 222.864 435.624L222.638 435.131C223.302 431.959 229.265 417.844 231.109 415.027ZM228.572 428.139C229.926 427.875 231.241 427.609 232.608 427.405L233.073 427.457C233.802 427.542 234.289 427.684 235 427.869C235.016 426.778 232.485 420.509 231.746 419.884C230.628 423.372 229.839 424.926 228.572 428.139Z"/><path fill="#619942" d="M365.78 414.912C368.513 414.562 375.041 415.371 375.384 418.755C374.765 419.777 375.189 419.441 374.087 419.828C372.379 419.629 372.172 418.665 370.884 418.172C363.877 415.491 358.786 422.327 361.052 428.485C361.804 430.501 363.373 432.106 365.371 432.904C367.978 433.969 370.965 432.742 373.416 431.798C373.511 430.351 373.524 428.722 373.57 427.258C372.002 427.374 370.256 427.42 368.671 427.491C368.007 426.421 367.806 426.182 368.616 425.298C370.661 424.726 373.973 424.772 376.195 424.678C376.268 426.583 376.676 431.551 375.786 433.044C373.474 436.921 365.878 436.49 362.631 434.799C360.22 433.555 358.436 431.364 357.706 428.752C355.826 422.021 359.258 416.873 365.78 414.912Z"/><path fill="#619942" d="M401.575 414.944C405.499 414.815 406.5 415.143 409.824 417.294C409.264 418.156 409.037 418.65 408.191 419.25C406.524 419.275 406.184 418.246 404.814 417.803C403.067 417.238 399.83 417.998 399.344 420.016C401.205 425.011 408.202 422.147 410.581 429.457L410.718 429.888C409.271 434.057 408.736 435.114 404.234 435.986C401.836 435.94 397.881 435.495 396.354 433.402C396.145 432.299 396.1 432.832 396.561 431.752C398.874 430.296 400.805 433.689 403.5 433.428C405.799 433.204 407.813 432.093 407.416 429.512C405.896 427.316 402.779 426.835 400.417 425.698C394.298 422.752 395.154 416.923 401.575 414.944Z"/><path fill="#619942" d="M197.66 414.941C199.621 415.016 202.833 415.704 203.717 417.698C203.397 418.74 203.671 418.291 202.789 419.041C201.381 419.204 193.632 415.314 193.909 420.37C194.14 424.603 204.816 423.555 204.644 429.351C204.481 434.836 201.647 435.897 196.923 435.971C194.433 435.754 191.156 434.796 190.009 432.343L190.458 431.551C193.29 430.631 193.144 432.284 195.593 433.106C197.999 433.914 200.971 432.88 201.809 430.373C200.85 425.916 191.221 426.973 190.791 421.05C190.444 416.264 193.607 415.257 197.66 414.941Z"/><path fill="#619942" d="M257.264 415.137C259.843 414.985 260.77 414.768 261.86 417.462C263.569 421.685 265.295 426.241 266.57 430.603C268.531 426.529 269.979 422.32 271.778 418.186C272.513 416.497 273.483 414.981 275.45 415.003L275.805 415.386C275.836 416.573 275.038 418.219 274.574 419.388C272.686 423.799 271.236 428.372 269.383 432.792C268.825 434.124 268.212 435.788 266.685 435.835C263.975 434.43 258.93 419.179 257.264 415.137Z"/><path fill="#619942" d="M119.255 424.645C129.89 424.532 140.526 424.492 151.162 424.528C154.394 424.528 164.628 424.384 167.273 424.827C167.937 425.693 167.696 425.188 167.715 426.519C155.425 427.174 142.735 426.51 130.396 426.755C127.076 426.821 123.242 426.862 119.94 426.614C119.127 425.934 119.393 426.104 119.255 424.645Z"/><path fill="#619942" d="M433.73 424.706C436.952 424.501 445.344 424.35 448.428 424.521C453.278 424.79 479.687 423.882 481.531 425.175C481.597 426.124 481.678 425.676 481.226 426.558C475.486 426.643 436.11 427.302 433.712 426.323C433.307 425.395 433.401 425.905 433.73 424.706Z"/><path fill="#619942" d="M296.338 415.063C297.238 415.124 297.835 414.988 298.392 415.647C298.617 418.161 298.831 434.531 298.114 435.923C297.137 435.868 296.733 435.939 295.928 435.383C295.538 432.624 295.525 417.356 296.338 415.063Z"/></svg>